<?xml version="1.0" encoding="UTF-8"?>
<svg xmlns="http://www.w3.org/2000/svg" version="1.1" xmlns:xlink="http://www.w3.org/1999/xlink" viewBox="0 0 2122 2122">
  <defs>
    <linearGradient id="linear-gradient" x1="910.347" y1="1317.095" x2="910.347" y2="977.993" gradientUnits="userSpaceOnUse">
      <stop offset=".457" stop-color="#ffc611"/>
      <stop offset=".546" stop-color="#ffbe0f"/>
      <stop offset=".679" stop-color="#ffa90c"/>
      <stop offset=".84" stop-color="#ff8806"/>
      <stop offset="1" stop-color="#ff6000"/>
    </linearGradient>
  </defs>
  <!-- Generator: Adobe Illustrator 28.7.7, SVG Export Plug-In . SVG Version: 1.2.0 Build 194)  -->
  <g style="isolation: isolate;">
    <g id="Layer_1">
      <g>
        <rect x="0" width="2121.32" height="2121.32" style="fill: #fbfbfc;"/>
        <g>
          <path d="M1375.832,1612.936c-1.704,7.442-9.118,12.094-16.56,10.391-7.443-1.704-12.095-9.118-10.391-16.561,1.704-7.442,20.486-27.542,20.486-27.542,0,0,8.168,26.269,6.465,33.712Z" style="fill: #267180; opacity: .609;"/>
          <path d="M1589.907,1115.017c-2.713,11.849-14.517,19.255-26.365,16.543-11.849-2.713-19.255-14.517-16.543-26.366,2.712-11.849,32.616-43.848,32.616-43.848,0,0,13.004,41.822,10.292,53.67Z" style="fill: #267180; opacity: .655;"/>
          <path d="M1082.524,1214.024c-3.175,13.868-16.991,22.537-30.859,19.362-13.867-3.175-22.536-16.99-19.361-30.858,3.175-13.868,38.174-51.32,38.174-51.32,0,0,15.22,48.949,12.046,62.817Z" style="fill: #267180; opacity: .992;"/>
          <path d="M1007.612,1735.918c-3.251,14.202-17.399,23.079-31.6,19.828-14.201-3.251-23.078-17.399-19.828-31.6,3.251-14.202,39.093-52.554,39.093-52.554,0,0,15.587,50.126,12.335,64.327Z" style="fill: #267180; opacity: .627;"/>
          <path d="M699.437,1178.366c-2.996,13.087-16.032,21.266-29.119,18.271-13.086-2.996-21.265-16.032-18.27-29.119,2.996-13.086,36.022-48.426,36.022-48.426,0,0,14.362,46.189,11.367,59.275Z" style="fill: #267180; opacity: .891;"/>
          <path d="M1371.119,1256.365c-2.698,11.786-14.439,19.152-26.225,16.454-11.785-2.698-19.152-14.439-16.454-26.224,2.698-11.786,32.441-43.614,32.441-43.614,0,0,12.936,41.598,10.238,53.384Z" style="fill: #267180; opacity: .876;"/>
          <path d="M1137.516,1493.25c-3.46,15.112-18.515,24.559-33.627,21.099-15.112-3.46-24.559-18.514-21.099-33.627,3.459-15.112,41.599-55.925,41.599-55.925,0,0,16.586,53.34,13.127,68.452Z" style="fill: #267180; opacity: .939;"/>
          <path d="M568.956,986.929c-2.597,11.346-13.9,18.438-25.247,15.841-11.346-2.597-18.438-13.901-15.841-25.247,2.597-11.346,31.232-41.987,31.232-41.987,0,0,12.452,40.047,9.855,51.393Z" style="fill: #267180; opacity: .84;"/>
          <path d="M1703.24,956.645c-1.559,6.81-8.343,11.067-15.153,9.508-6.81-1.559-11.066-8.343-9.508-15.153,1.559-6.81,18.745-25.2,18.745-25.2,0,0,7.474,24.035,5.915,30.845Z" style="fill: #267180; opacity: .884;"/>
          <path d="M501.036,1639.611c-2.865,12.515-15.333,20.337-27.848,17.473-12.514-2.865-20.337-15.333-17.472-27.847,2.864-12.515,34.449-46.313,34.449-46.313,0,0,13.735,44.172,10.87,56.687Z" style="fill: #267180; opacity: .867;"/>
          <path d="M1305.894,875.26c-2.395,10.46-12.815,16.999-23.275,14.604s-16.999-12.815-14.604-23.275c2.395-10.46,28.793-38.708,28.793-38.708,0,0,11.48,36.92,9.086,47.379Z" style="fill: #267180; opacity: .7;"/>
          <path d="M302.161,1100.098c-1.7,7.427-9.099,12.069-16.526,10.369-7.427-1.7-12.069-9.099-10.369-16.526s20.443-27.484,20.443-27.484c0,0,8.152,26.214,6.451,33.641Z" style="fill: #267180; opacity: .96;"/>
          <path d="M454.384,1331.243c-1.564,6.831-8.37,11.102-15.201,9.538-6.832-1.564-11.102-8.37-9.538-15.201,1.564-6.832,18.805-25.28,18.805-25.28,0,0,7.497,24.112,5.934,30.942Z" style="fill: #267180; opacity: .82;"/>
          <path d="M1601.073,1407.63c-2.799,12.225-14.977,19.867-27.202,17.068-12.225-2.798-19.867-14.977-17.068-27.202,2.798-12.225,33.651-45.239,33.651-45.239,0,0,13.417,43.149,10.619,55.374Z" style="fill: #267180; opacity: .945;"/>
          <path d="M1774.982,1222.865c-1.613,7.047-8.634,11.453-15.682,9.839-7.048-1.613-11.453-8.634-9.84-15.682,1.613-7.047,19.4-26.08,19.4-26.08,0,0,7.735,24.875,6.122,31.923Z" style="fill: #267180; opacity: .682;"/>
          <path d="M795.863,1491.536c-3.459,15.111-18.514,24.556-33.624,21.098-15.111-3.46-24.557-18.514-21.098-33.625,3.459-15.111,41.596-55.92,41.596-55.92,0,0,16.585,53.336,13.126,68.448Z" style="fill: #267180; opacity: .613;"/>
          <path d="M1014.463,873.907c-1.872,8.173-10.014,13.282-18.187,11.411-8.173-1.871-13.282-10.013-11.411-18.187,1.871-8.173,22.498-30.245,22.498-30.245,0,0,8.971,28.848,7.1,37.021Z" style="fill: #267180; opacity: .889;"/>
          <path d="M693.183,1770.575c-2.249,9.825-12.037,15.967-21.862,13.717-9.825-2.249-15.967-12.037-13.717-21.862,2.249-9.824,27.045-36.359,27.045-36.359,0,0,10.783,34.678,8.535,44.504Z" style="fill: #267180; opacity: .74;"/>
        </g>
        <g style="mix-blend-mode: multiply; opacity: .2;">
          <path d="M1477.945,837.409c5.367-46.877-24.646-91.6-71.662-103.295-23.442-5.831-46.981-2.347-66.858,7.962-6.158-65.784-65.297-121.06-143.959-110.039-19.632,2.751-47.838,16.351-61.942,30.283-21.609,21.348-34.004,47.831-37.735,73.67-21.772-15.578-47.544-26.536-76.318-30.85-80.078-12.005-159.642,34.063-188.934,109.552-9.977,25.712-13.436,51.92-11.514,77.138-157.69-23.013-201.453,219.792,11.954,219.792h713.748c251.067,0,186.507-317.421-66.781-274.215Z" style="fill: #fff;"/>
          <path d="M1483.604,827.974c5.367-46.877-24.646-91.6-71.662-103.295-23.442-5.831-46.981-2.347-66.858,7.962-6.158-65.785-65.297-121.06-143.959-110.039-19.633,2.751-47.838,16.351-61.942,30.283-21.609,21.348-34.004,47.831-37.735,73.67-21.772-15.578-47.544-26.536-76.318-30.85-80.078-12.005-159.642,34.063-188.934,109.552-9.977,25.712-13.436,51.92-11.514,77.138-157.69-23.013-201.453,219.792,11.954,219.792h713.748c251.067,0,186.507-317.421-66.781-274.215Z" style="fill: #f7f8f8;"/>
          <path d="M1489.263,818.538c5.367-46.877-24.646-91.6-71.662-103.295-23.442-5.831-46.981-2.347-66.858,7.962-6.158-65.784-65.297-121.06-143.959-110.039-19.632,2.751-47.838,16.351-61.942,30.283-21.609,21.348-34.004,47.831-37.734,73.67-21.772-15.578-47.544-26.536-76.318-30.85-80.078-12.005-159.642,34.063-188.934,109.552-9.977,25.712-13.436,51.92-11.514,77.138-157.69-23.013-201.453,219.792,11.954,219.792h713.749c251.067,0,186.507-317.421-66.781-274.215Z" style="fill: #eff2f2;"/>
          <path d="M1494.922,809.103c5.367-46.877-24.646-91.6-71.662-103.295-23.442-5.832-46.981-2.347-66.858,7.962-6.158-65.784-65.297-121.06-143.959-110.039-19.633,2.751-47.838,16.351-61.942,30.283-21.609,21.348-34.004,47.831-37.734,73.67-21.772-15.578-47.544-26.536-76.318-30.85-80.079-12.005-159.642,34.063-188.934,109.552-9.977,25.712-13.436,51.92-11.514,77.138-157.69-23.013-201.453,219.792,11.954,219.792h713.749c251.067,0,186.507-317.421-66.781-274.215Z" style="fill: #e6ebeb;"/>
          <path d="M1500.581,799.667c5.367-46.877-24.646-91.6-71.662-103.295-23.442-5.831-46.981-2.347-66.858,7.962-6.158-65.784-65.297-121.06-143.959-110.039-19.633,2.751-47.838,16.351-61.942,30.283-21.609,21.348-34.004,47.831-37.734,73.67-21.772-15.578-47.544-26.536-76.318-30.85-80.079-12.005-159.642,34.063-188.934,109.552-9.977,25.712-13.436,51.92-11.514,77.138-157.69-23.013-201.453,219.792,11.954,219.792h713.748c251.067,0,186.507-317.421-66.781-274.215Z" style="fill: #dee5e5;"/>
          <path d="M1506.24,790.232c5.367-46.877-24.646-91.6-71.662-103.295-23.442-5.831-46.981-2.347-66.858,7.962-6.158-65.784-65.297-121.06-143.959-110.039-19.633,2.751-47.838,16.351-61.942,30.283-21.609,21.348-34.004,47.831-37.735,73.67-21.772-15.578-47.544-26.536-76.318-30.85-80.079-12.005-159.642,34.063-188.934,109.552-9.977,25.712-13.436,51.92-11.514,77.138-157.69-23.013-201.453,219.792,11.954,219.792h713.748c251.067,0,186.507-317.421-66.781-274.214Z" style="fill: #d6dede;"/>
          <path d="M1511.899,780.797c5.367-46.877-24.646-91.6-71.662-103.295-23.442-5.831-46.981-2.347-66.858,7.962-6.158-65.784-65.297-121.06-143.959-110.039-19.633,2.751-47.838,16.351-61.942,30.283-21.609,21.348-34.004,47.831-37.734,73.67-21.772-15.578-47.544-26.536-76.318-30.85-80.079-12.005-159.642,34.063-188.934,109.552-9.977,25.712-13.436,51.92-11.514,77.138-157.69-23.013-201.453,219.792,11.954,219.792h713.748c251.067,0,186.507-317.421-66.781-274.215Z" style="fill: #ced7d7;"/>
          <path d="M1517.558,771.361c5.367-46.877-24.646-91.6-71.662-103.295-23.442-5.831-46.981-2.347-66.858,7.962-6.158-65.784-65.297-121.06-143.959-110.039-19.633,2.751-47.838,16.351-61.942,30.283-21.609,21.348-34.004,47.831-37.734,73.67-21.772-15.578-47.544-26.536-76.318-30.85-80.079-12.005-159.642,34.063-188.934,109.552-9.977,25.712-13.436,51.92-11.514,77.138-157.69-23.013-201.453,219.792,11.954,219.792h713.748c251.067,0,186.507-317.421-66.781-274.215Z" style="fill: #c5d1d1;"/>
          <path d="M1523.217,761.926c5.367-46.877-24.646-91.6-71.662-103.295-23.442-5.831-46.981-2.347-66.858,7.962-6.158-65.785-65.297-121.06-143.959-110.039-19.633,2.751-47.838,16.351-61.942,30.283-21.609,21.348-34.004,47.831-37.734,73.67-21.772-15.578-47.544-26.536-76.318-30.85-80.079-12.005-159.642,34.063-188.934,109.552-9.977,25.712-13.436,51.92-11.514,77.138-157.69-23.013-201.453,219.792,11.954,219.792h713.748c251.067,0,186.507-317.421-66.781-274.215Z" style="fill: #bdcaca;"/>
          <path d="M1528.876,752.491c5.367-46.877-24.646-91.6-71.662-103.295-23.442-5.831-46.981-2.347-66.858,7.962-6.158-65.784-65.297-121.06-143.959-110.039-19.633,2.751-47.838,16.351-61.942,30.283-21.609,21.348-34.004,47.831-37.734,73.67-21.772-15.578-47.544-26.536-76.318-30.85-80.079-12.005-159.642,34.063-188.934,109.552-9.977,25.712-13.436,51.92-11.514,77.138-157.69-23.013-201.453,219.792,11.954,219.792h713.748c251.067,0,186.507-317.421-66.781-274.215Z" style="fill: #b5c3c3;"/>
          <path d="M1534.535,743.055c5.367-46.877-24.646-91.6-71.662-103.295-23.442-5.831-46.981-2.347-66.858,7.962-6.158-65.784-65.297-121.06-143.959-110.039-19.633,2.751-47.838,16.351-61.942,30.283-21.609,21.348-34.004,47.831-37.734,73.67-21.772-15.578-47.544-26.536-76.318-30.85-80.079-12.005-159.642,34.063-188.934,109.552-9.977,25.712-13.436,51.92-11.514,77.138-157.69-23.013-201.453,219.792,11.954,219.792h713.748c251.067,0,186.507-317.421-66.781-274.215Z" style="fill: #adbdbd;"/>
          <path d="M1540.194,733.62c5.367-46.877-24.646-91.6-71.662-103.295-23.442-5.832-46.981-2.347-66.858,7.962-6.158-65.784-65.297-121.06-143.959-110.039-19.633,2.751-47.838,16.351-61.942,30.283-21.609,21.348-34.004,47.831-37.735,73.67-21.772-15.578-47.544-26.536-76.318-30.85-80.079-12.005-159.642,34.063-188.934,109.552-9.977,25.712-13.436,51.92-11.514,77.138-157.69-23.013-201.453,219.792,11.954,219.792h713.748c251.067,0,186.507-317.421-66.781-274.215Z" style="fill: #a5b6b6;"/>
          <path d="M1545.853,724.185c5.367-46.877-24.646-91.6-71.662-103.295-23.442-5.831-46.981-2.347-66.858,7.962-6.158-65.785-65.297-121.06-143.959-110.039-19.633,2.751-47.838,16.351-61.942,30.283-21.609,21.348-34.004,47.831-37.735,73.67-21.772-15.578-47.544-26.536-76.318-30.85-80.079-12.005-159.642,34.063-188.934,109.552-9.977,25.712-13.436,51.92-11.514,77.138-157.69-23.013-201.453,219.792,11.954,219.792h713.748c251.067,0,186.507-317.421-66.781-274.214Z" style="fill: #9cb0b0;"/>
          <path d="M1551.512,714.749c5.367-46.877-24.646-91.6-71.662-103.295-23.442-5.831-46.981-2.347-66.858,7.962-6.158-65.784-65.297-121.06-143.958-110.039-19.633,2.751-47.838,16.351-61.942,30.283-21.609,21.348-34.004,47.831-37.735,73.67-21.772-15.578-47.544-26.536-76.318-30.85-80.079-12.005-159.642,34.063-188.934,109.552-9.977,25.712-13.436,51.92-11.514,77.138-157.69-23.013-201.453,219.792,11.954,219.792h713.748c251.067,0,186.507-317.421-66.781-274.215Z" style="fill: #94a9a9;"/>
          <path d="M1557.171,705.314c5.367-46.877-24.646-91.6-71.662-103.295-23.442-5.831-46.981-2.347-66.858,7.962-6.158-65.784-65.296-121.06-143.958-110.039-19.633,2.751-47.838,16.351-61.942,30.283-21.609,21.348-34.004,47.831-37.734,73.67-21.772-15.578-47.544-26.536-76.318-30.85-80.079-12.005-159.642,34.063-188.934,109.552-9.977,25.712-13.436,51.92-11.514,77.138-157.69-23.013-201.453,219.792,11.954,219.792h713.749c251.067,0,186.507-317.421-66.782-274.215Z" style="fill: #8ca2a2;"/>
          <path d="M1562.83,695.878c5.367-46.877-24.646-91.6-71.662-103.295-23.443-5.831-46.981-2.347-66.858,7.962-6.158-65.784-65.297-121.06-143.959-110.039-19.633,2.751-47.838,16.351-61.942,30.283-21.609,21.348-34.004,47.831-37.734,73.67-21.772-15.578-47.544-26.536-76.318-30.85-80.079-12.005-159.642,34.063-188.934,109.552-9.977,25.712-13.436,51.92-11.514,77.138-157.69-23.013-201.453,219.792,11.954,219.792h713.749c251.067,0,186.507-317.421-66.782-274.215Z" style="fill: #849c9c;"/>
          <path d="M1568.489,686.443c5.367-46.877-24.646-91.6-71.662-103.295-23.442-5.832-46.981-2.347-66.858,7.962-6.158-65.784-65.297-121.06-143.958-110.039-19.633,2.751-47.838,16.351-61.942,30.283-21.609,21.348-34.004,47.831-37.734,73.67-21.772-15.578-47.544-26.536-76.318-30.85-80.079-12.005-159.642,34.063-188.934,109.552-9.977,25.712-13.436,51.92-11.514,77.138-157.69-23.013-201.453,219.792,11.954,219.792h713.748c251.067,0,186.507-317.421-66.781-274.215Z" style="fill: #7b9595;"/>
          <path d="M1574.148,677.008c5.367-46.877-24.646-91.6-71.662-103.295-23.442-5.831-46.981-2.347-66.858,7.962-6.158-65.785-65.297-121.06-143.958-110.039-19.633,2.751-47.838,16.351-61.942,30.283-21.609,21.348-34.004,47.831-37.735,73.67-21.772-15.578-47.544-26.536-76.318-30.85-80.079-12.005-159.642,34.063-188.934,109.552-9.977,25.712-13.436,51.92-11.514,77.138-157.69-23.013-201.453,219.792,11.954,219.792h713.748c251.067,0,186.507-317.421-66.781-274.215Z" style="fill: #738f8f;"/>
          <path d="M1579.807,667.572c5.367-46.877-24.646-91.6-71.662-103.295-23.443-5.831-46.981-2.347-66.858,7.962-6.158-65.784-65.296-121.06-143.958-110.039-19.633,2.751-47.838,16.351-61.942,30.283-21.609,21.348-34.004,47.831-37.734,73.67-21.772-15.578-47.544-26.536-76.318-30.85-80.079-12.005-159.642,34.063-188.934,109.552-9.977,25.712-13.436,51.92-11.514,77.138-157.69-23.013-201.453,219.792,11.954,219.792h713.748c251.067,0,186.507-317.421-66.781-274.215Z" style="fill: #6b8888;"/>
          <path d="M1585.466,658.137c5.367-46.877-24.646-91.6-71.662-103.295-23.443-5.831-46.981-2.347-66.858,7.962-6.158-65.784-65.296-121.06-143.958-110.039-19.633,2.751-47.838,16.351-61.942,30.283-21.609,21.348-34.004,47.831-37.735,73.67-21.772-15.578-47.544-26.536-76.318-30.85-80.079-12.005-159.642,34.063-188.934,109.552-9.977,25.712-13.436,51.92-11.514,77.138-157.69-23.013-201.453,219.792,11.954,219.792h713.748c251.067,0,186.507-317.421-66.782-274.215Z" style="fill: #638181;"/>
          <path d="M1591.125,648.702c5.367-46.877-24.646-91.6-71.662-103.295-23.442-5.831-46.981-2.347-66.858,7.962-6.158-65.784-65.296-121.06-143.958-110.039-19.633,2.751-47.838,16.351-61.942,30.283-21.609,21.348-34.004,47.831-37.735,73.67-21.772-15.578-47.544-26.536-76.318-30.85-80.079-12.005-159.642,34.063-188.934,109.552-9.977,25.712-13.436,51.92-11.514,77.138-157.69-23.013-201.453,219.792,11.954,219.792h713.749c251.067,0,186.507-317.421-66.782-274.215Z" style="fill: #5a7b7b;"/>
          <path d="M1596.784,639.266c5.367-46.877-24.646-91.6-71.662-103.295-23.443-5.832-46.981-2.347-66.858,7.962-6.158-65.785-65.296-121.06-143.958-110.039-19.633,2.751-47.838,16.351-61.942,30.283-21.609,21.348-34.004,47.831-37.734,73.67-21.772-15.578-47.544-26.536-76.318-30.85-80.079-12.005-159.642,34.063-188.934,109.552-9.977,25.712-13.436,51.92-11.514,77.138-157.69-23.013-201.453,219.792,11.954,219.792h713.749c251.067,0,186.507-317.421-66.782-274.215Z" style="fill: #527474;"/>
          <path d="M1602.443,629.831c5.367-46.877-24.646-91.6-71.662-103.295-23.443-5.831-46.981-2.347-66.858,7.962-6.158-65.784-65.296-121.06-143.958-110.039-19.633,2.751-47.838,16.351-61.942,30.283-21.609,21.348-34.004,47.831-37.734,73.67-21.772-15.578-47.544-26.536-76.318-30.85-80.079-12.005-159.642,34.063-188.934,109.552-9.977,25.712-13.436,51.92-11.514,77.138-157.69-23.013-201.453,219.792,11.954,219.792h713.748c251.067,0,186.507-317.421-66.782-274.215Z" style="fill: #4a6e6e;"/>
          <path d="M1608.102,620.396c5.367-46.877-24.646-91.6-71.662-103.295-23.443-5.831-46.981-2.347-66.858,7.962-6.158-65.784-65.296-121.06-143.958-110.039-19.633,2.751-47.839,16.351-61.942,30.283-21.609,21.348-34.004,47.831-37.735,73.67-21.772-15.578-47.544-26.536-76.318-30.85-80.079-12.005-159.642,34.063-188.934,109.552-9.977,25.712-13.436,51.92-11.514,77.138-157.69-23.013-201.453,219.792,11.954,219.792h713.748c251.067,0,186.507-317.421-66.782-274.215Z" style="fill: #426767;"/>
          <path d="M1613.761,610.96c5.367-46.877-24.646-91.6-71.662-103.295-23.443-5.831-46.981-2.347-66.858,7.962-6.158-65.784-65.296-121.06-143.958-110.039-19.633,2.751-47.839,16.351-61.942,30.283-21.609,21.348-34.004,47.831-37.735,73.67-21.772-15.578-47.544-26.536-76.318-30.85-80.079-12.005-159.642,34.063-188.934,109.552-9.977,25.712-13.436,51.92-11.514,77.138-157.69-23.013-201.453,219.792,11.954,219.792h713.748c251.067,0,186.507-317.421-66.782-274.215Z" style="fill: #3a6060;"/>
          <path d="M1619.42,601.525c5.367-46.877-24.646-91.6-71.662-103.295-23.443-5.831-46.981-2.347-66.858,7.962-6.158-65.784-65.296-121.06-143.958-110.039-19.633,2.751-47.839,16.351-61.942,30.283-21.609,21.348-34.004,47.831-37.735,73.67-21.772-15.578-47.544-26.536-76.318-30.85-80.079-12.005-159.642,34.063-188.934,109.552-9.977,25.712-13.436,51.92-11.514,77.138-157.69-23.013-201.453,219.792,11.954,219.792h713.748c251.067,0,186.507-317.421-66.782-274.215Z" style="fill: #315a5a;"/>
          <path d="M1625.079,592.09c5.367-46.877-24.646-91.6-71.662-103.295-23.443-5.832-46.981-2.347-66.858,7.962-6.158-65.785-65.296-121.06-143.958-110.039-19.633,2.751-47.839,16.351-61.942,30.283-21.609,21.348-34.004,47.831-37.734,73.67-21.772-15.578-47.544-26.536-76.318-30.85-80.079-12.005-159.643,34.063-188.934,109.552-9.977,25.712-13.436,51.92-11.514,77.138-157.691-23.013-201.453,219.792,11.954,219.792h713.749c251.067,0,186.507-317.421-66.782-274.215Z" style="fill: #295353;"/>
          <path d="M1630.738,582.654c5.367-46.877-24.646-91.6-71.662-103.295-23.443-5.831-46.981-2.347-66.858,7.962-6.158-65.784-65.296-121.06-143.958-110.039-19.633,2.751-47.839,16.351-61.942,30.283-21.609,21.348-34.004,47.831-37.734,73.67-21.772-15.578-47.544-26.536-76.318-30.85-80.079-12.005-159.642,34.063-188.934,109.552-9.977,25.712-13.436,51.92-11.514,77.138-157.691-23.013-201.453,219.792,11.954,219.792h713.749c251.067,0,186.507-317.421-66.782-274.215Z" style="fill: #214c4c;"/>
          <path d="M1636.397,573.219c5.367-46.877-24.646-91.6-71.662-103.295-23.443-5.831-46.981-2.347-66.858,7.962-6.158-65.785-65.296-121.06-143.958-110.039-19.633,2.751-47.839,16.351-61.942,30.283-21.609,21.348-34.004,47.831-37.734,73.67-21.772-15.578-47.544-26.536-76.318-30.85-80.079-12.005-159.642,34.063-188.934,109.552-9.977,25.712-13.436,51.92-11.514,77.138-157.691-23.013-201.453,219.792,11.954,219.792h713.748c251.067,0,186.507-317.421-66.782-274.215Z" style="fill: #194646;"/>
          <path d="M1642.056,563.783c5.367-46.877-24.646-91.6-71.662-103.295-23.443-5.832-46.981-2.347-66.858,7.962-6.158-65.784-65.296-121.06-143.958-110.039-19.633,2.751-47.839,16.351-61.942,30.283-21.609,21.348-34.004,47.831-37.734,73.67-21.772-15.578-47.544-26.536-76.318-30.85-80.079-12.005-159.643,34.063-188.934,109.552-9.977,25.712-13.436,51.92-11.514,77.138-157.691-23.013-201.453,219.792,11.954,219.792h713.748c251.067,0,186.507-317.421-66.782-274.215Z" style="fill: #103f3f;"/>
          <path d="M1647.715,554.348c5.367-46.877-24.646-91.6-71.662-103.295-23.443-5.831-46.981-2.347-66.858,7.962-6.158-65.785-65.296-121.06-143.958-110.039-19.633,2.751-47.839,16.351-61.942,30.283-21.609,21.348-34.004,47.831-37.734,73.67-21.772-15.578-47.544-26.536-76.318-30.85-80.079-12.005-159.643,34.063-188.934,109.552-9.978,25.712-13.437,51.92-11.514,77.138-157.691-23.013-201.453,219.792,11.954,219.792h713.748c251.067,0,186.507-317.421-66.782-274.215Z" style="fill: #083939;"/>
          <path d="M1653.374,544.913c5.367-46.877-24.646-91.6-71.662-103.295-23.443-5.831-46.981-2.347-66.858,7.962-6.158-65.784-65.296-121.06-143.958-110.039-19.633,2.751-47.839,16.351-61.942,30.283-21.61,21.348-34.004,47.831-37.735,73.67-21.772-15.578-47.544-26.536-76.318-30.85-80.079-12.005-159.643,34.063-188.934,109.552-9.978,25.712-13.437,51.92-11.514,77.138-157.691-23.013-201.453,219.792,11.954,219.792h713.748c251.067,0,186.507-317.421-66.782-274.215Z" style="fill: #003232;"/>
        </g>
        <path d="M1653.374,544.913c5.367-46.877-24.646-91.6-71.662-103.295-23.443-5.831-46.981-2.347-66.858,7.962-6.158-65.784-65.296-121.06-143.958-110.039-19.633,2.751-47.839,16.351-61.942,30.283-21.61,21.348-34.004,47.831-37.735,73.67-21.772-15.578-47.544-26.536-76.318-30.85-80.079-12.005-159.643,34.063-188.934,109.552-9.978,25.712-13.437,51.92-11.514,77.138-157.691-23.013-201.453,219.792,11.954,219.792h713.748c251.067,0,186.507-317.421-66.782-274.215Z" style="fill: #267180;"/>
        <g style="mix-blend-mode: multiply; opacity: .2;">
          <path d="M1053.744,1020.184c6.074-53.054-27.894-103.672-81.106-116.908-26.532-6.6-53.172-2.656-75.669,9.012-6.969-74.454-73.902-137.014-162.931-124.541-22.22,3.113-54.143,18.506-70.105,34.274-24.457,24.161-38.485,54.134-42.707,83.379-24.641-17.631-53.81-30.033-86.377-34.915-90.632-13.588-180.68,38.551-213.833,123.99-11.292,29.101-15.206,58.763-13.031,87.303-178.472-26.045-228.003,248.76,13.529,248.76h807.813c284.155,0,211.087-359.254-75.583-310.354Z" style="fill: #fff;"/>
          <path d="M1060.582,1009.805c6.074-53.054-27.894-103.671-81.106-116.908-26.532-6.6-53.172-2.656-75.669,9.012-6.969-74.454-73.902-137.015-162.931-124.541-22.22,3.114-54.143,18.506-70.105,34.274-24.457,24.161-38.485,54.134-42.707,83.379-24.641-17.631-53.81-30.033-86.377-34.915-90.632-13.588-180.68,38.551-213.833,123.99-11.292,29.101-15.206,58.763-13.031,87.303-178.472-26.045-228.003,248.759,13.529,248.759h807.813c284.155,0,211.087-359.254-75.583-310.354Z" style="fill: #f7f8f8;"/>
          <path d="M1067.421,999.426c6.075-53.054-27.894-103.671-81.106-116.908-26.532-6.6-53.172-2.656-75.669,9.012-6.969-74.454-73.902-137.014-162.931-124.541-22.22,3.114-54.143,18.506-70.105,34.274-24.457,24.161-38.485,54.134-42.707,83.379-24.641-17.631-53.81-30.033-86.377-34.915-90.632-13.588-180.68,38.551-213.833,123.99-11.292,29.101-15.206,58.763-13.031,87.303-178.472-26.045-228.003,248.759,13.529,248.759h807.813c284.155,0,211.087-359.254-75.583-310.354Z" style="fill: #eff2f2;"/>
          <path d="M1074.259,989.047c6.074-53.054-27.894-103.671-81.106-116.908-26.532-6.6-53.172-2.656-75.669,9.012-6.969-74.454-73.902-137.015-162.931-124.541-22.22,3.114-54.143,18.506-70.105,34.274-24.457,24.161-38.485,54.134-42.707,83.379-24.641-17.631-53.81-30.033-86.377-34.915-90.632-13.587-180.68,38.551-213.833,123.99-11.292,29.101-15.206,58.763-13.031,87.303-178.472-26.045-228.003,248.759,13.529,248.759h807.813c284.155,0,211.087-359.254-75.583-310.354Z" style="fill: #e6ebeb;"/>
          <path d="M1081.097,978.669c6.075-53.054-27.894-103.671-81.106-116.908-26.532-6.6-53.172-2.656-75.669,9.012-6.969-74.454-73.902-137.015-162.931-124.541-22.22,3.113-54.143,18.506-70.105,34.274-24.457,24.161-38.485,54.134-42.707,83.379-24.641-17.631-53.81-30.033-86.377-34.915-90.632-13.587-180.68,38.551-213.833,123.99-11.292,29.101-15.206,58.763-13.031,87.303-178.472-26.045-228.003,248.76,13.529,248.76h807.813c284.155,0,211.087-359.254-75.583-310.354Z" style="fill: #dee5e5;"/>
          <path d="M1087.936,968.29c6.075-53.054-27.894-103.671-81.106-116.908-26.532-6.6-53.172-2.656-75.669,9.012-6.969-74.454-73.902-137.014-162.931-124.541-22.22,3.113-54.143,18.505-70.105,34.274-24.457,24.161-38.485,54.134-42.707,83.379-24.641-17.631-53.81-30.033-86.377-34.915-90.632-13.587-180.681,38.551-213.833,123.99-11.292,29.101-15.206,58.763-13.031,87.303-178.472-26.045-228.003,248.759,13.529,248.759h807.813c284.155,0,211.087-359.254-75.583-310.354Z" style="fill: #d6dede;"/>
          <path d="M1094.774,957.912c6.074-53.054-27.894-103.672-81.106-116.908-26.532-6.6-53.172-2.656-75.669,9.012-6.969-74.454-73.902-137.015-162.931-124.541-22.22,3.114-54.143,18.506-70.105,34.274-24.457,24.161-38.485,54.134-42.707,83.379-24.641-17.63-53.81-30.033-86.377-34.915-90.632-13.587-180.68,38.551-213.833,123.99-11.292,29.101-15.206,58.763-13.031,87.303-178.472-26.045-228.003,248.759,13.529,248.759h807.813c284.155,0,211.087-359.254-75.583-310.353Z" style="fill: #ced7d7;"/>
          <path d="M1101.612,947.533c6.075-53.054-27.894-103.671-81.106-116.908-26.532-6.6-53.172-2.656-75.669,9.012-6.969-74.454-73.902-137.014-162.931-124.541-22.22,3.114-54.143,18.506-70.105,34.274-24.457,24.161-38.485,54.134-42.707,83.379-24.641-17.631-53.81-30.033-86.377-34.915-90.632-13.587-180.68,38.551-213.833,123.99-11.292,29.101-15.206,58.763-13.031,87.303-178.472-26.045-228.003,248.76,13.529,248.76h807.813c284.155,0,211.087-359.254-75.583-310.354Z" style="fill: #c5d1d1;"/>
          <path d="M1108.451,937.154c6.074-53.054-27.894-103.671-81.106-116.908-26.532-6.6-53.172-2.656-75.669,9.012-6.969-74.454-73.902-137.014-162.931-124.541-22.22,3.113-54.143,18.506-70.105,34.274-24.457,24.161-38.485,54.134-42.707,83.379-24.641-17.631-53.81-30.033-86.377-34.915-90.632-13.588-180.681,38.551-213.833,123.99-11.292,29.101-15.206,58.763-13.031,87.303-178.472-26.045-228.003,248.759,13.529,248.759h807.813c284.155,0,211.087-359.254-75.583-310.354Z" style="fill: #bdcaca;"/>
          <path d="M1115.289,926.775c6.075-53.054-27.894-103.671-81.106-116.908-26.532-6.6-53.172-2.656-75.669,9.012-6.969-74.454-73.902-137.015-162.931-124.541-22.22,3.114-54.143,18.506-70.105,34.274-24.457,24.161-38.485,54.134-42.707,83.379-24.641-17.631-53.81-30.033-86.377-34.915-90.632-13.588-180.68,38.551-213.833,123.99-11.292,29.101-15.206,58.763-13.031,87.303-178.472-26.045-228.003,248.759,13.529,248.759h807.813c284.155,0,211.087-359.254-75.583-310.354Z" style="fill: #b5c3c3;"/>
          <path d="M1122.128,916.397c6.075-53.054-27.894-103.672-81.106-116.908-26.532-6.6-53.172-2.656-75.669,9.012-6.969-74.454-73.902-137.015-162.931-124.541-22.22,3.114-54.143,18.506-70.105,34.274-24.457,24.161-38.485,54.134-42.707,83.379-24.641-17.63-53.81-30.033-86.377-34.915-90.632-13.587-180.68,38.551-213.833,123.99-11.292,29.101-15.207,58.763-13.031,87.303-178.472-26.045-228.003,248.76,13.529,248.76h807.813c284.155,0,211.087-359.254-75.583-310.354Z" style="fill: #adbdbd;"/>
          <path d="M1128.966,906.018c6.074-53.054-27.894-103.671-81.106-116.908-26.532-6.6-53.172-2.656-75.669,9.012-6.969-74.454-73.902-137.014-162.931-124.541-22.22,3.113-54.143,18.506-70.105,34.274-24.457,24.161-38.485,54.134-42.707,83.379-24.641-17.631-53.81-30.033-86.377-34.915-90.632-13.587-180.681,38.551-213.833,123.99-11.292,29.101-15.206,58.763-13.031,87.303-178.472-26.045-228.003,248.759,13.529,248.759h807.813c284.155,0,211.087-359.254-75.583-310.354Z" style="fill: #a5b6b6;"/>
          <path d="M1135.804,895.639c6.074-53.054-27.894-103.671-81.106-116.908-26.532-6.6-53.172-2.656-75.669,9.012-6.969-74.454-73.902-137.014-162.931-124.541-22.22,3.113-54.143,18.506-70.105,34.274-24.457,24.161-38.485,54.134-42.707,83.379-24.641-17.631-53.81-30.033-86.377-34.915-90.632-13.587-180.68,38.551-213.833,123.99-11.292,29.101-15.206,58.763-13.031,87.303-178.472-26.045-228.003,248.759,13.529,248.759h807.813c284.155,0,211.087-359.254-75.583-310.354Z" style="fill: #9cb0b0;"/>
          <path d="M1142.643,885.261c6.075-53.054-27.894-103.672-81.106-116.908-26.532-6.6-53.172-2.656-75.669,9.012-6.969-74.454-73.902-137.015-162.931-124.541-22.22,3.114-54.143,18.506-70.105,34.274-24.457,24.161-38.485,54.134-42.707,83.379-24.641-17.631-53.81-30.033-86.377-34.915-90.632-13.587-180.68,38.551-213.833,123.99-11.292,29.101-15.206,58.763-13.031,87.303-178.472-26.045-228.003,248.76,13.529,248.76h807.813c284.155,0,211.087-359.254-75.583-310.354Z" style="fill: #94a9a9;"/>
          <path d="M1149.481,874.882c6.074-53.054-27.894-103.671-81.106-116.908-26.532-6.6-53.172-2.656-75.669,9.012-6.969-74.454-73.902-137.015-162.931-124.541-22.22,3.114-54.143,18.506-70.105,34.274-24.457,24.161-38.485,54.134-42.707,83.379-24.641-17.631-53.81-30.033-86.377-34.915-90.632-13.587-180.68,38.551-213.833,123.99-11.292,29.101-15.206,58.763-13.031,87.303-178.472-26.045-228.003,248.759,13.529,248.759h807.813c284.155,0,211.087-359.254-75.583-310.354Z" style="fill: #8ca2a2;"/>
          <path d="M1156.319,864.503c6.075-53.054-27.894-103.671-81.106-116.908-26.532-6.6-53.172-2.656-75.669,9.012-6.969-74.454-73.902-137.014-162.931-124.541-22.22,3.114-54.143,18.506-70.105,34.274-24.457,24.161-38.485,54.134-42.707,83.379-24.641-17.631-53.81-30.033-86.377-34.915-90.632-13.588-180.68,38.551-213.833,123.99-11.292,29.101-15.206,58.763-13.031,87.303-178.472-26.045-228.003,248.759,13.529,248.759h807.813c284.155,0,211.087-359.254-75.583-310.354Z" style="fill: #849c9c;"/>
          <path d="M1163.158,854.125c6.075-53.054-27.894-103.671-81.106-116.908-26.532-6.6-53.172-2.656-75.669,9.012-6.97-74.454-73.902-137.015-162.931-124.541-22.22,3.113-54.143,18.506-70.105,34.274-24.457,24.161-38.485,54.134-42.707,83.379-24.641-17.631-53.81-30.033-86.377-34.915-90.632-13.588-180.68,38.551-213.833,123.99-11.292,29.101-15.206,58.763-13.031,87.303-178.472-26.045-228.003,248.759,13.529,248.759h807.813c284.155,0,211.087-359.254-75.583-310.354Z" style="fill: #7b9595;"/>
          <path d="M1169.996,843.746c6.074-53.054-27.894-103.671-81.106-116.908-26.532-6.6-53.172-2.656-75.669,9.012-6.969-74.454-73.902-137.015-162.931-124.541-22.22,3.113-54.143,18.506-70.105,34.274-24.457,24.161-38.485,54.134-42.707,83.379-24.641-17.63-53.81-30.033-86.377-34.915-90.632-13.588-180.681,38.551-213.833,123.99-11.292,29.101-15.206,58.763-13.031,87.303-178.472-26.045-228.003,248.76,13.529,248.76h807.813c284.155,0,211.087-359.254-75.583-310.354Z" style="fill: #738f8f;"/>
          <path d="M1176.835,833.367c6.075-53.054-27.894-103.671-81.106-116.908-26.532-6.6-53.172-2.656-75.669,9.012-6.969-74.454-73.902-137.014-162.931-124.541-22.22,3.113-54.143,18.506-70.105,34.274-24.457,24.161-38.485,54.134-42.707,83.379-24.641-17.631-53.81-30.033-86.377-34.915-90.632-13.587-180.68,38.551-213.833,123.99-11.292,29.101-15.206,58.763-13.031,87.303-178.472-26.045-228.003,248.759,13.529,248.759h807.813c284.155,0,211.087-359.254-75.583-310.354Z" style="fill: #6b8888;"/>
          <path d="M1183.673,822.989c6.075-53.054-27.894-103.672-81.106-116.908-26.532-6.6-53.172-2.656-75.669,9.012-6.969-74.454-73.902-137.014-162.931-124.541-22.22,3.113-54.143,18.506-70.105,34.274-24.457,24.161-38.485,54.134-42.707,83.379-24.641-17.631-53.81-30.033-86.377-34.915-90.632-13.588-180.68,38.551-213.833,123.99-11.292,29.101-15.206,58.763-13.031,87.303-178.472-26.045-228.003,248.759,13.529,248.759h807.813c284.155,0,211.087-359.254-75.583-310.354Z" style="fill: #638181;"/>
          <path d="M1190.511,812.61c6.075-53.054-27.894-103.671-81.106-116.908-26.532-6.6-53.172-2.656-75.669,9.012-6.969-74.454-73.902-137.015-162.931-124.541-22.22,3.114-54.143,18.506-70.105,34.274-24.457,24.161-38.485,54.134-42.707,83.379-24.641-17.631-53.81-30.033-86.377-34.915-90.632-13.588-180.68,38.551-213.833,123.99-11.292,29.101-15.206,58.763-13.031,87.303-178.472-26.045-228.003,248.76,13.529,248.76h807.813c284.155,0,211.087-359.254-75.583-310.354Z" style="fill: #5a7b7b;"/>
          <path d="M1197.35,802.231c6.075-53.054-27.894-103.671-81.106-116.908-26.532-6.6-53.172-2.656-75.669,9.012-6.969-74.454-73.902-137.014-162.931-124.541-22.22,3.113-54.143,18.506-70.105,34.274-24.457,24.161-38.485,54.134-42.707,83.379-24.641-17.631-53.81-30.033-86.377-34.915-90.632-13.588-180.681,38.551-213.833,123.99-11.292,29.101-15.206,58.763-13.031,87.303-178.472-26.045-228.003,248.759,13.529,248.759h807.813c284.155,0,211.087-359.254-75.583-310.354Z" style="fill: #527474;"/>
          <path d="M1204.188,791.853c6.074-53.054-27.894-103.671-81.106-116.908-26.532-6.6-53.172-2.656-75.669,9.012-6.969-74.454-73.902-137.015-162.931-124.541-22.22,3.114-54.143,18.506-70.105,34.274-24.457,24.161-38.485,54.134-42.707,83.379-24.641-17.631-53.81-30.033-86.377-34.915-90.632-13.587-180.68,38.551-213.833,123.99-11.292,29.101-15.206,58.763-13.031,87.303-178.472-26.045-228.003,248.759,13.529,248.759h807.813c284.155,0,211.087-359.254-75.583-310.354Z" style="fill: #4a6e6e;"/>
          <path d="M1211.027,781.474c6.074-53.054-27.894-103.671-81.106-116.908-26.532-6.6-53.172-2.656-75.669,9.012-6.969-74.454-73.902-137.015-162.931-124.541-22.22,3.113-54.143,18.506-70.105,34.274-24.457,24.161-38.485,54.134-42.707,83.379-24.641-17.631-53.81-30.033-86.377-34.915-90.632-13.587-180.681,38.551-213.833,123.99-11.292,29.101-15.207,58.763-13.031,87.303-178.472-26.045-228.003,248.76,13.529,248.76h807.813c284.155,0,211.087-359.254-75.583-310.354Z" style="fill: #426767;"/>
          <path d="M1217.865,771.095c6.075-53.054-27.894-103.671-81.106-116.908-26.532-6.6-53.172-2.656-75.669,9.012-6.969-74.454-73.902-137.014-162.931-124.541-22.22,3.113-54.143,18.505-70.105,34.274-24.457,24.161-38.485,54.134-42.707,83.379-24.641-17.631-53.81-30.033-86.377-34.915-90.632-13.587-180.68,38.551-213.833,123.99-11.292,29.101-15.206,58.763-13.031,87.303-178.472-26.045-228.003,248.759,13.529,248.759h807.813c284.155,0,211.087-359.254-75.583-310.354Z" style="fill: #3a6060;"/>
          <path d="M1224.703,760.717c6.075-53.054-27.894-103.671-81.106-116.908-26.532-6.6-53.172-2.656-75.669,9.012-6.969-74.454-73.902-137.014-162.931-124.541-22.22,3.114-54.143,18.506-70.105,34.274-24.457,24.161-38.485,54.134-42.707,83.379-24.641-17.63-53.81-30.033-86.377-34.915-90.632-13.587-180.68,38.551-213.833,123.99-11.292,29.101-15.206,58.763-13.031,87.303-178.472-26.045-228.003,248.759,13.529,248.759h807.813c284.155,0,211.087-359.254-75.583-310.354Z" style="fill: #315a5a;"/>
          <path d="M1231.542,750.338c6.075-53.054-27.894-103.671-81.106-116.908-26.532-6.6-53.172-2.656-75.669,9.012-6.969-74.454-73.902-137.014-162.931-124.541-22.22,3.114-54.143,18.506-70.105,34.274-24.457,24.161-38.485,54.134-42.707,83.379-24.641-17.631-53.81-30.033-86.377-34.915-90.632-13.588-180.68,38.551-213.833,123.99-11.292,29.101-15.206,58.763-13.031,87.303-178.472-26.045-228.003,248.759,13.529,248.759h807.813c284.155,0,211.087-359.254-75.583-310.354Z" style="fill: #295353;"/>
          <path d="M1238.38,739.959c6.075-53.054-27.894-103.671-81.106-116.908-26.532-6.6-53.172-2.656-75.669,9.012-6.969-74.454-73.902-137.015-162.931-124.541-22.22,3.113-54.143,18.506-70.105,34.274-24.457,24.161-38.485,54.134-42.707,83.379-24.641-17.631-53.81-30.033-86.377-34.915-90.632-13.588-180.68,38.551-213.833,123.99-11.292,29.101-15.206,58.763-13.031,87.303-178.472-26.045-228.003,248.759,13.529,248.759h807.813c284.155,0,211.087-359.254-75.583-310.354Z" style="fill: #214c4c;"/>
          <path d="M1245.218,729.581c6.075-53.054-27.894-103.671-81.106-116.908-26.532-6.6-53.172-2.656-75.669,9.012-6.969-74.454-73.902-137.014-162.931-124.541-22.22,3.114-54.143,18.506-70.105,34.274-24.457,24.161-38.485,54.134-42.707,83.379-24.641-17.631-53.81-30.033-86.377-34.915-90.632-13.588-180.68,38.551-213.833,123.99-11.292,29.101-15.206,58.763-13.031,87.303-178.472-26.045-228.003,248.759,13.529,248.759h807.813c284.155,0,211.087-359.254-75.583-310.354Z" style="fill: #194646;"/>
          <path d="M1252.057,719.202c6.075-53.054-27.894-103.672-81.106-116.908-26.532-6.6-53.172-2.656-75.669,9.012-6.969-74.454-73.902-137.015-162.931-124.541-22.22,3.114-54.143,18.506-70.105,34.274-24.457,24.161-38.485,54.134-42.707,83.379-24.641-17.63-53.81-30.033-86.377-34.915-90.632-13.587-180.681,38.551-213.833,123.99-11.292,29.101-15.206,58.763-13.031,87.303-178.472-26.045-228.003,248.759,13.529,248.759h807.813c284.155,0,211.087-359.254-75.583-310.353Z" style="fill: #103f3f;"/>
          <path d="M1258.895,708.823c6.075-53.054-27.894-103.671-81.106-116.908-26.532-6.6-53.172-2.656-75.669,9.012-6.969-74.454-73.902-137.014-162.931-124.541-22.22,3.113-54.143,18.506-70.105,34.274-24.457,24.161-38.485,54.134-42.707,83.379-24.641-17.631-53.81-30.033-86.377-34.915-90.632-13.587-180.68,38.551-213.833,123.99-11.292,29.101-15.206,58.763-13.031,87.303-178.472-26.045-228.003,248.76,13.529,248.76h807.813c284.155,0,211.087-359.254-75.583-310.354Z" style="fill: #083939;"/>
          <path d="M1265.734,698.445c6.074-53.054-27.894-103.671-81.106-116.908-26.532-6.6-53.172-2.656-75.669,9.012-6.969-74.454-73.902-137.014-162.931-124.541-22.22,3.113-54.143,18.505-70.105,34.274-24.457,24.161-38.485,54.134-42.707,83.379-24.641-17.631-53.81-30.033-86.377-34.915-90.632-13.587-180.68,38.551-213.833,123.99-11.292,29.101-15.206,58.763-13.031,87.303-178.472-26.045-228.003,248.759,13.529,248.759h807.813c284.155,0,211.087-359.254-75.583-310.354Z" style="fill: #003232;"/>
        </g>
        <polygon points="1001.917 1074.124 900.414 1074.124 1043.838 928.495 864.007 928.495 776.855 1140.319 880.556 1140.319 783.474 1390.755 1001.917 1074.124" style="fill: url(#linear-gradient);"/>
        <path d="M1265.734,698.445c6.074-53.054-27.894-103.671-81.106-116.908-26.532-6.6-53.172-2.656-75.669,9.012-6.969-74.454-73.902-137.014-162.931-124.541-22.22,3.113-54.143,18.505-70.105,34.274-24.457,24.161-38.485,54.134-42.707,83.379-24.641-17.631-53.81-30.033-86.377-34.915-90.632-13.587-180.68,38.551-213.833,123.99-11.292,29.101-15.206,58.763-13.031,87.303-178.472-26.045-228.003,248.759,13.529,248.759h807.813c284.155,0,211.087-359.254-75.583-310.354Z" style="fill: #003232;"/>
      </g>
    </g>
  </g>
</svg>